<mxfile host="app.diagrams.net" modified="2024-05-14T14:38:53.546Z" agent="Mozilla/5.0 (Windows NT 10.0; Win64; x64) AppleWebKit/537.36 (KHTML, like Gecko) Chrome/124.0.0.0 Safari/537.36" etag="T2G2iELhuRQB1mh2qHq6" version="24.4.0" type="github">
  <diagram id="6a731a19-8d31-9384-78a2-239565b7b9f0" name="Page-1">
    <mxGraphModel dx="905" dy="1106" grid="1" gridSize="10" guides="1" tooltips="1" connect="1" arrows="1" fold="1" page="1" pageScale="1" pageWidth="1169" pageHeight="827" background="none" math="0" shadow="0">
      <root>
        <mxCell id="0" />
        <mxCell id="1" parent="0" />
        <mxCell id="26" value="" style="edgeStyle=elbowEdgeStyle;elbow=horizontal;exitX=0;exitY=0.5;exitPerimeter=0;entryX=0;entryY=0.5;entryPerimeter=0;fontStyle=1;strokeColor=#003366;strokeWidth=1;html=1;" parent="1" source="28" edge="1">
          <mxGeometry width="100" height="100" as="geometry">
            <mxPoint y="100" as="sourcePoint" />
            <mxPoint x="271" y="418.5" as="targetPoint" />
            <Array as="points">
              <mxPoint x="160" y="850" />
            </Array>
          </mxGeometry>
        </mxCell>
        <mxCell id="54" value="" style="edgeStyle=elbowEdgeStyle;elbow=horizontal;exitX=0;exitY=0.5;exitPerimeter=0;entryX=0.095;entryY=0.5;entryPerimeter=0;fontStyle=1;strokeColor=#003366;strokeWidth=1;html=1;" parent="1" source="37" edge="1">
          <mxGeometry width="100" height="100" as="geometry">
            <mxPoint y="100" as="sourcePoint" />
            <mxPoint x="255.60500000000002" y="290" as="targetPoint" />
            <Array as="points">
              <mxPoint x="120" y="970" />
            </Array>
          </mxGeometry>
        </mxCell>
        <mxCell id="Ic0IF7MyFX4vwEhalqbt-60" value="开始" style="shape=mxgraph.flowchart.terminator;strokeWidth=2;gradientColor=none;gradientDirection=north;fontStyle=0;html=1;" parent="1" vertex="1">
          <mxGeometry x="1409.5" y="80" width="120" height="30" as="geometry" />
        </mxCell>
        <mxCell id="Ic0IF7MyFX4vwEhalqbt-61" value="获取需求关联数据" style="shape=mxgraph.flowchart.data;strokeWidth=2;gradientColor=none;gradientDirection=north;fontStyle=0;html=1;align=center;" parent="1" vertex="1">
          <mxGeometry x="1390" y="150" width="159" height="80" as="geometry" />
        </mxCell>
        <mxCell id="tXCMsK0jg3xA15wEFBQy-60" style="edgeStyle=orthogonalEdgeStyle;rounded=0;orthogonalLoop=1;jettySize=auto;html=1;" edge="1" parent="1" source="Ic0IF7MyFX4vwEhalqbt-63" target="tXCMsK0jg3xA15wEFBQy-59">
          <mxGeometry relative="1" as="geometry" />
        </mxCell>
        <mxCell id="Ic0IF7MyFX4vwEhalqbt-63" value="获取单位信息" style="shape=mxgraph.flowchart.data;strokeWidth=2;gradientColor=none;gradientDirection=north;fontStyle=0;html=1;" parent="1" vertex="1">
          <mxGeometry x="1390" y="270" width="159" height="80" as="geometry" />
        </mxCell>
        <mxCell id="Ic0IF7MyFX4vwEhalqbt-65" style="fontStyle=1;strokeColor=#003366;strokeWidth=1;html=1;" parent="1" source="Ic0IF7MyFX4vwEhalqbt-60" target="Ic0IF7MyFX4vwEhalqbt-61" edge="1">
          <mxGeometry relative="1" as="geometry" />
        </mxCell>
        <mxCell id="Ic0IF7MyFX4vwEhalqbt-66" style="fontStyle=1;strokeColor=#003366;strokeWidth=1;html=1;" parent="1" source="Ic0IF7MyFX4vwEhalqbt-61" target="Ic0IF7MyFX4vwEhalqbt-63" edge="1">
          <mxGeometry relative="1" as="geometry" />
        </mxCell>
        <mxCell id="Ic0IF7MyFX4vwEhalqbt-73" value="采购数/调拨数/冻结数/件号单位信息" style="shape=document;whiteSpace=wrap;html=1;boundedLbl=1;" parent="1" vertex="1">
          <mxGeometry x="1810" y="150" width="120" height="80" as="geometry" />
        </mxCell>
        <mxCell id="Ic0IF7MyFX4vwEhalqbt-74" value="" style="endArrow=none;dashed=1;html=1;rounded=0;entryX=0;entryY=0.5;entryDx=0;entryDy=0;" parent="1" target="Ic0IF7MyFX4vwEhalqbt-73" edge="1">
          <mxGeometry width="50" height="50" relative="1" as="geometry">
            <mxPoint x="1549.5" y="190" as="sourcePoint" />
            <mxPoint x="1619.7106781186549" y="190" as="targetPoint" />
          </mxGeometry>
        </mxCell>
        <mxCell id="tXCMsK0jg3xA15wEFBQy-56" value="根据件号获取最小计算单位/最小计算单位转换率" style="shape=document;whiteSpace=wrap;html=1;boundedLbl=1;" vertex="1" parent="1">
          <mxGeometry x="1810" y="270" width="120" height="80" as="geometry" />
        </mxCell>
        <mxCell id="tXCMsK0jg3xA15wEFBQy-58" value="" style="endArrow=none;dashed=1;html=1;rounded=0;entryX=0;entryY=0.5;entryDx=0;entryDy=0;" edge="1" parent="1" source="Ic0IF7MyFX4vwEhalqbt-63" target="tXCMsK0jg3xA15wEFBQy-56">
          <mxGeometry width="50" height="50" relative="1" as="geometry">
            <mxPoint x="1549" y="360" as="sourcePoint" />
            <mxPoint x="1619.7106781186549" y="310" as="targetPoint" />
          </mxGeometry>
        </mxCell>
        <mxCell id="tXCMsK0jg3xA15wEFBQy-62" style="edgeStyle=orthogonalEdgeStyle;rounded=0;orthogonalLoop=1;jettySize=auto;html=1;" edge="1" parent="1" source="tXCMsK0jg3xA15wEFBQy-59" target="tXCMsK0jg3xA15wEFBQy-61">
          <mxGeometry relative="1" as="geometry" />
        </mxCell>
        <mxCell id="tXCMsK0jg3xA15wEFBQy-59" value="调拨/采购/冻结单位去重" style="shape=mxgraph.flowchart.data;strokeWidth=2;gradientColor=none;gradientDirection=north;fontStyle=0;html=1;" vertex="1" parent="1">
          <mxGeometry x="1390" y="400" width="159" height="80" as="geometry" />
        </mxCell>
        <mxCell id="tXCMsK0jg3xA15wEFBQy-64" style="edgeStyle=orthogonalEdgeStyle;rounded=0;orthogonalLoop=1;jettySize=auto;html=1;" edge="1" parent="1" source="tXCMsK0jg3xA15wEFBQy-61" target="tXCMsK0jg3xA15wEFBQy-63">
          <mxGeometry relative="1" as="geometry" />
        </mxCell>
        <mxCell id="tXCMsK0jg3xA15wEFBQy-61" value="最小单位冻结/发料数量计算处理" style="shape=mxgraph.flowchart.data;strokeWidth=2;gradientColor=none;gradientDirection=north;fontStyle=0;html=1;" vertex="1" parent="1">
          <mxGeometry x="1390" y="530" width="159" height="80" as="geometry" />
        </mxCell>
        <mxCell id="tXCMsK0jg3xA15wEFBQy-66" style="edgeStyle=orthogonalEdgeStyle;rounded=0;orthogonalLoop=1;jettySize=auto;html=1;" edge="1" parent="1" source="tXCMsK0jg3xA15wEFBQy-63" target="tXCMsK0jg3xA15wEFBQy-65">
          <mxGeometry relative="1" as="geometry" />
        </mxCell>
        <mxCell id="tXCMsK0jg3xA15wEFBQy-63" value="最小单位调拨数量处理" style="shape=mxgraph.flowchart.data;strokeWidth=2;gradientColor=none;gradientDirection=north;fontStyle=0;html=1;" vertex="1" parent="1">
          <mxGeometry x="1390" y="670" width="159" height="80" as="geometry" />
        </mxCell>
        <mxCell id="tXCMsK0jg3xA15wEFBQy-68" style="edgeStyle=orthogonalEdgeStyle;rounded=0;orthogonalLoop=1;jettySize=auto;html=1;" edge="1" parent="1" source="tXCMsK0jg3xA15wEFBQy-65" target="tXCMsK0jg3xA15wEFBQy-67">
          <mxGeometry relative="1" as="geometry" />
        </mxCell>
        <mxCell id="tXCMsK0jg3xA15wEFBQy-65" value="最小单位采购数量处理" style="shape=mxgraph.flowchart.data;strokeWidth=2;gradientColor=none;gradientDirection=north;fontStyle=0;html=1;" vertex="1" parent="1">
          <mxGeometry x="1390" y="800" width="159" height="80" as="geometry" />
        </mxCell>
        <mxCell id="tXCMsK0jg3xA15wEFBQy-73" style="edgeStyle=orthogonalEdgeStyle;rounded=0;orthogonalLoop=1;jettySize=auto;html=1;" edge="1" parent="1" source="tXCMsK0jg3xA15wEFBQy-67" target="tXCMsK0jg3xA15wEFBQy-72">
          <mxGeometry relative="1" as="geometry" />
        </mxCell>
        <mxCell id="tXCMsK0jg3xA15wEFBQy-67" value="计算缺件数量" style="shape=mxgraph.flowchart.data;strokeWidth=2;gradientColor=none;gradientDirection=north;fontStyle=0;html=1;" vertex="1" parent="1">
          <mxGeometry x="1390" y="925" width="159" height="80" as="geometry" />
        </mxCell>
        <mxCell id="tXCMsK0jg3xA15wEFBQy-72" value="结束" style="shape=mxgraph.flowchart.terminator;strokeWidth=2;gradientColor=none;gradientDirection=north;fontStyle=0;html=1;" vertex="1" parent="1">
          <mxGeometry x="1409.5" y="1063.25" width="120" height="30" as="geometry" />
        </mxCell>
        <mxCell id="tXCMsK0jg3xA15wEFBQy-75" value="库存单位不等于发料单位并且发料单位存在最小库存单位。否则使用1:1计算" style="shape=document;whiteSpace=wrap;html=1;boundedLbl=1;" vertex="1" parent="1">
          <mxGeometry x="1810" y="660" width="120" height="80" as="geometry" />
        </mxCell>
        <mxCell id="tXCMsK0jg3xA15wEFBQy-76" value="" style="endArrow=none;dashed=1;html=1;rounded=0;exitX=0.905;exitY=0.5;exitDx=0;exitDy=0;exitPerimeter=0;" edge="1" parent="1" source="tXCMsK0jg3xA15wEFBQy-67">
          <mxGeometry width="50" height="50" relative="1" as="geometry">
            <mxPoint x="1549" y="1015" as="sourcePoint" />
            <mxPoint x="1810" y="690" as="targetPoint" />
          </mxGeometry>
        </mxCell>
        <mxCell id="tXCMsK0jg3xA15wEFBQy-80" value="" style="endArrow=none;dashed=1;html=1;rounded=0;entryX=0;entryY=0.5;entryDx=0;entryDy=0;" edge="1" parent="1" target="tXCMsK0jg3xA15wEFBQy-75">
          <mxGeometry width="50" height="50" relative="1" as="geometry">
            <mxPoint x="1510" y="880" as="sourcePoint" />
            <mxPoint x="1560" y="830" as="targetPoint" />
          </mxGeometry>
        </mxCell>
        <mxCell id="tXCMsK0jg3xA15wEFBQy-81" value="" style="endArrow=none;dashed=1;html=1;rounded=0;entryX=0.022;entryY=0.408;entryDx=0;entryDy=0;entryPerimeter=0;" edge="1" parent="1" source="tXCMsK0jg3xA15wEFBQy-63" target="tXCMsK0jg3xA15wEFBQy-75">
          <mxGeometry width="50" height="50" relative="1" as="geometry">
            <mxPoint x="1549" y="760" as="sourcePoint" />
            <mxPoint x="1619.7106781186549" y="710" as="targetPoint" />
          </mxGeometry>
        </mxCell>
        <mxCell id="tXCMsK0jg3xA15wEFBQy-82" value="" style="endArrow=none;dashed=1;html=1;rounded=0;entryX=0.006;entryY=0.417;entryDx=0;entryDy=0;entryPerimeter=0;" edge="1" parent="1" source="tXCMsK0jg3xA15wEFBQy-61" target="tXCMsK0jg3xA15wEFBQy-75">
          <mxGeometry width="50" height="50" relative="1" as="geometry">
            <mxPoint x="1549" y="620" as="sourcePoint" />
            <mxPoint x="1619.7106781186549" y="570" as="targetPoint" />
          </mxGeometry>
        </mxCell>
        <mxCell id="tXCMsK0jg3xA15wEFBQy-84" value="" style="endArrow=none;dashed=1;html=1;rounded=0;entryX=-0.039;entryY=0.417;entryDx=0;entryDy=0;entryPerimeter=0;" edge="1" parent="1" source="tXCMsK0jg3xA15wEFBQy-59" target="tXCMsK0jg3xA15wEFBQy-75">
          <mxGeometry width="50" height="50" relative="1" as="geometry">
            <mxPoint x="1549" y="490" as="sourcePoint" />
            <mxPoint x="1619.7106781186549" y="440" as="targetPoint" />
          </mxGeometry>
        </mxCell>
      </root>
    </mxGraphModel>
  </diagram>
</mxfile>
